<svg width="19" height="24" viewBox="0 0 19 24" fill="none" xmlns="http://www.w3.org/2000/svg">
<path fill-rule="evenodd" clip-rule="evenodd" d="M13.7501 17.4976V10.6226C13.7501 9.66922 13.5668 8.7984 13.2001 8.01006C12.8335 7.22172 12.311 6.60756 11.6326 6.16756C10.936 5.69089 10.1202 5.45256 9.18515 5.45256C8.25014 5.45256 7.43432 5.69089 6.73765 6.16756C6.05931 6.60756 5.53682 7.22172 5.17015 8.01006C4.80348 8.7984 4.62015 9.66922 4.62015 10.6226V17.4976H13.7501ZM16.06 16.315L18.37 18.625V19.7525H0V18.625L2.31 16.315V10.6225C2.31 8.82584 2.75916 7.27669 3.6575 5.97502C4.57417 4.63668 5.84833 3.76585 7.48 3.36252V2.56502C7.48 2.08835 7.645 1.68044 7.975 1.34127C8.305 1.0021 8.70833 0.83252 9.185 0.83252C9.66167 0.83252 10.0696 1.0021 10.4088 1.34127C10.7479 1.68044 10.9175 2.08835 10.9175 2.56502V3.36252C12.5308 3.76585 13.7958 4.64585 14.7125 6.00252C15.6108 7.30419 16.06 8.84418 16.06 10.6225V16.315ZM9.185 23.1901C8.56166 23.1901 8.02084 22.9701 7.5625 22.5301C7.10416 22.0901 6.875 21.5584 6.875 20.9351H11.495C11.495 21.5584 11.2658 22.0901 10.8075 22.5301C10.3492 22.9701 9.80834 23.1901 9.185 23.1901Z" fill="#B3BBD0"/>
</svg>
