<svg width="111" height="23" viewBox="0 0 111 23" fill="none" xmlns="http://www.w3.org/2000/svg">
<path d="M7.16172 0H0.688372C0.304472 0 0 0.318737 0 0.701222V6.41299C0 6.79548 0.304472 7.11422 0.688372 7.11422H7.16172C7.54562 7.11422 7.85009 6.79548 7.85009 6.41299V0.701222C7.85009 0.318737 7.54562 0 7.16172 0Z" fill="#003970"/>
<path d="M16.191 0H9.71767C9.33377 0 9.0293 0.318737 9.0293 0.701222V6.41299C9.0293 6.79548 9.33377 7.11422 9.71767 7.11422H16.191C16.5749 7.11422 16.8794 6.79548 16.8794 6.41299V0.701222C16.8794 0.318737 16.5749 0 16.191 0Z" fill="#003970"/>
<path d="M25.3632 0H18.7972C18.4265 0 18.1221 0.293238 18.1221 0.650224V6.46399C18.1221 6.82098 18.4265 7.11422 18.7972 7.11422H25.3632C25.7339 7.11422 26.0383 6.82098 26.0383 6.46399V0.650224C26.0383 0.293238 25.7339 0 25.3632 0ZM24.6219 5.78827H19.5385V1.32595H24.6219V5.78827Z" fill="#E5564E"/>
<path d="M7.20078 7.92969H0.727435C0.343535 7.92969 0.0390625 8.24842 0.0390625 8.63091V14.3682C0.0390625 14.7634 0.343535 15.0694 0.727435 15.0694H7.20078C7.58468 15.0694 7.88915 14.7507 7.88915 14.3682V8.63091C7.88915 8.24842 7.58468 7.92969 7.20078 7.92969Z" fill="#003970"/>
<path d="M16.2301 7.92969H9.75673C9.37283 7.92969 9.06836 8.24842 9.06836 8.63091V14.3682C9.06836 14.7634 9.37283 15.0694 9.75673 15.0694H16.2301C16.614 15.0694 16.9184 14.7507 16.9184 14.3682V8.63091C16.9184 8.24842 16.614 7.92969 16.2301 7.92969Z" fill="#003970"/>
<path d="M25.2838 7.92969H18.8104C18.4265 7.92969 18.1221 8.24842 18.1221 8.63091V14.3682C18.1221 14.7634 18.4265 15.0694 18.8104 15.0694H25.2838C25.6677 15.0694 25.9722 14.7507 25.9722 14.3682V8.63091C25.9722 8.24842 25.6677 7.92969 25.2838 7.92969Z" fill="#003970"/>
<path d="M7.20078 15.8604H0.727435C0.343535 15.8604 0.0390625 16.1791 0.0390625 16.5616V22.2988C0.0390625 22.6941 0.343535 23.0001 0.727435 23.0001H7.20078C7.58468 23.0001 7.88915 22.6813 7.88915 22.2988V16.5616C7.88915 16.1791 7.58468 15.8604 7.20078 15.8604Z" fill="#003970"/>
<path d="M16.2301 15.8604H9.75673C9.37283 15.8604 9.06836 16.1791 9.06836 16.5616V22.2988C9.06836 22.6941 9.37283 23.0001 9.75673 23.0001H16.2301C16.614 23.0001 16.9184 22.6813 16.9184 22.2988V16.5616C16.9184 16.1791 16.614 15.8604 16.2301 15.8604Z" fill="#003970"/>
<path d="M25.3229 15.8604H18.8495C18.4656 15.8604 18.1611 16.1791 18.1611 16.5616V22.2988C18.1611 22.6941 18.4656 23.0001 18.8495 23.0001H25.3229C25.7067 23.0001 26.0112 22.6813 26.0112 22.2988V16.5616C26.0112 16.1791 25.7067 15.8604 25.3229 15.8604Z" fill="#003970"/>
<path d="M83.0534 6.99956C82.3915 6.73182 81.4384 6.59158 80.194 6.59158H75.0312V16.5362H80.194C81.1339 16.5362 81.9017 16.4597 82.4974 16.2939C83.0931 16.1409 83.6227 15.8605 84.0728 15.478C85.1318 14.5728 85.6613 13.2723 85.6613 11.5511C85.6613 10.5694 85.4892 9.7152 85.1318 8.98848C84.6949 8.07052 83.9933 7.40755 83.0534 6.99956ZM82.1003 14.5345C81.6237 14.7768 80.9221 14.9042 79.9955 14.9042H77.0434V8.22351H79.9955C80.6971 8.22351 81.2531 8.28726 81.6899 8.42751C82.1268 8.56775 82.4974 8.78449 82.8019 9.10323C83.3447 9.67696 83.6227 10.4929 83.6227 11.5639C83.6094 13.0428 83.1064 14.0245 82.1003 14.5345ZM97.3239 7.81553C96.2914 6.88482 94.8881 6.41309 93.1143 6.41309C90.7579 6.43858 89.0767 7.2418 88.1103 8.82274C87.5808 9.65146 87.3293 10.5567 87.3293 11.5639C87.3293 12.2396 87.4617 12.8898 87.7132 13.5018C88.0044 14.203 88.428 14.8023 88.9708 15.3122C90.0033 16.2429 91.3933 16.7147 93.154 16.7147C95.4971 16.7147 97.1783 15.9115 98.1976 14.2923C98.7271 13.4636 98.9787 12.5711 98.9787 11.6276C98.9654 10.0594 98.4227 8.79724 97.3239 7.81553ZM96.6223 12.9408C96.4105 13.4253 96.106 13.8333 95.6957 14.1648C95.0205 14.7258 94.1733 15.0062 93.154 15.0062C92.1214 15.0062 91.2742 14.7258 90.5991 14.1648C89.7915 13.5018 89.3944 12.6348 89.3944 11.5511C89.3944 10.4674 89.7915 9.60046 90.5991 8.92474C91.2742 8.36376 92.1214 8.08327 93.1407 8.08327C94.16 8.09602 95.0073 8.37651 95.6957 8.92474C96.5032 9.58771 96.9003 10.4802 96.9003 11.6021C96.9003 12.0611 96.8076 12.5073 96.6223 12.9408ZM106.895 11.3599L110.866 6.59158H108.576L105.823 9.85545L103.122 6.59158H100.766L104.552 11.4619L100.475 16.5362H102.765L105.624 12.9663L108.51 16.5362H110.999L106.895 11.3599Z" fill="#E5564E"/>
<path d="M39.7 11.3346C40.7723 10.9011 41.3018 10.1999 41.3018 9.23094C41.3018 8.35123 41.0106 7.68825 40.4281 7.22927C40.1369 6.99978 39.7927 6.83404 39.3956 6.73204C38.9984 6.63005 38.4689 6.5918 37.807 6.5918H31.4131V16.5364H37.8732C38.5219 16.5364 39.0778 16.4854 39.5147 16.3707C39.9515 16.2559 40.3354 16.0774 40.6664 15.8097C41.3151 15.2997 41.6328 14.5857 41.6328 13.6805C41.6328 12.5331 40.9973 11.7426 39.7 11.3346ZM33.4385 8.22373H37.529C38.1512 8.22373 38.6013 8.31298 38.8793 8.49147C39.1573 8.66996 39.2896 8.9632 39.2896 9.38394C39.2896 9.79192 39.144 10.0979 38.8528 10.2891C38.588 10.4549 38.1512 10.5441 37.5158 10.5441H33.4253V8.22373H33.4385ZM38.9852 14.6112C38.6542 14.8025 38.1115 14.9045 37.3834 14.9045H33.4385V12.1888H37.3966C38.138 12.1888 38.6675 12.2781 38.9984 12.4693C39.3956 12.6861 39.5941 13.0558 39.5941 13.553C39.5809 14.0375 39.3823 14.3945 38.9852 14.6112ZM43.8964 16.5364H45.9086V6.5918H43.8964V16.5364ZM57.6109 13.2598L50.8066 6.5918H48.9931V16.5364H50.8331V9.72817L57.8095 16.5364H59.4378V6.5918H57.6109V13.2598ZM68.1086 6.5918H66.3215L61.5426 16.5364H63.3959L64.7065 13.9993H69.5516L70.8621 16.5364H73.0066L68.1086 6.5918ZM65.2757 12.6351L67.1555 9.0907L69.0088 12.6351H65.2757Z" fill="#003970"/>
</svg>
