<svg width="24" height="29" viewBox="0 0 24 29" fill="none" xmlns="http://www.w3.org/2000/svg">
<path d="M15.1772 24.708C15.2202 24.4371 15.2312 4.84874 15.1903 4.42128C11.8619 5.21408 8.53847 6.00617 5.20136 6.80109V20.6094C3.48331 21.2809 1.77139 21.9497 0.0601599 22.6177C0.0491423 22.6115 0.0396988 22.6082 0.0307798 22.6018C0.0232598 22.5963 0.0136411 22.588 0.0129415 22.5804C0.00752018 22.5287 0.000699813 22.477 0.000699813 22.4246C2.82827e-07 16.8452 0 11.2651 0 5.69943C0.0765986 5.60501 0.175583 5.59318 0.261625 5.56159C5.15292 3.72979 10.0456 1.89993 14.9374 0.0683035C15.1069 0.00476671 15.2606 -0.0262943 15.4484 0.0289474C18.1325 0.807979 20.8193 1.57801 23.5053 2.35086C23.5443 2.36269 23.5833 2.37645 23.6385 2.39428V25.911C22.8673 26.1254 22.1029 26.3399 21.3378 26.5508C19.3901 27.0878 17.4412 27.6209 15.495 28.162C15.3043 28.2151 15.1377 28.211 14.9504 28.142C10.1392 26.3641 5.3257 24.5916 0.513805 22.8184C0.418844 22.7832 0.325807 22.7439 0.245885 22.6592C5.22322 23.3424 10.2006 24.0248 15.1772 24.708Z" fill="#DC3E15"/>
</svg>
