<svg width="20" height="20" viewBox="0 0 20 20" fill="none" xmlns="http://www.w3.org/2000/svg">
    <path d="M18.5424 8.52542L16.8644 8.32203C16.7119 7.61017 16.4068 6.94915 16.0508 6.33898L17.0678 5.01695C17.2203 4.81356 17.1695 4.50847 17.0169 4.30508L15.6949 2.98305C15.4915 2.77966 15.2373 2.77966 15.0339 2.9322L13.7119 3.94915C13.1017 3.59322 12.4407 3.28814 11.7288 3.13559L11.5254 1.45763C11.4746 1.20339 11.2712 1 11.0169 1H9.08474C8.83051 1 8.62712 1.20339 8.57627 1.45763L8.32203 3.08475C7.61017 3.23729 6.94915 3.54237 6.33898 3.89831L5.01695 2.88136C4.81356 2.72881 4.50847 2.72881 4.35593 2.9322L2.98305 4.30508C2.77966 4.50847 2.77966 4.76271 2.9322 4.9661L3.94915 6.28814C3.59322 6.8983 3.28813 7.55932 3.13559 8.27119L1.45763 8.47458C1.20339 8.52542 1 8.72881 1 8.98305V10.9153C1 11.1695 1.20339 11.3729 1.45763 11.4237L3.13559 11.6271C3.28813 12.339 3.59322 13 3.94915 13.6102L2.9322 14.9322C2.77966 15.1356 2.77966 15.4407 2.98305 15.5932L4.35593 16.9661C4.55932 17.1695 4.81356 17.1695 5.01695 17.0169L6.33898 16C6.94915 16.3559 7.61017 16.661 8.32203 16.8136L8.52542 18.4915C8.57627 18.7458 8.77966 18.9492 9.0339 18.9492H10.9661C11.2203 18.9492 11.4237 18.7458 11.4746 18.4915L11.678 16.8136C12.3898 16.661 13.0508 16.3559 13.661 16L14.983 17.0169C15.0847 17.0678 15.1864 17.1186 15.2881 17.1186C15.4407 17.1186 15.5932 17.0678 15.6949 16.9661L17.0169 15.6441C17.2203 15.4407 17.2203 15.1864 17.0678 14.983L16.0508 13.661C16.4068 13.0508 16.7119 12.3898 16.8644 11.678L18.5424 11.4746C18.7966 11.4237 19 11.2203 19 10.9661V9.0339C19 8.72881 18.7966 8.52542 18.5424 8.52542ZM17.983 10.4576L16.4068 10.661C16.2034 10.7119 16 10.8644 15.9492 11.0678C15.7966 11.8814 15.4915 12.6441 15.0339 13.3559C14.9322 13.5593 14.9322 13.7627 15.0339 13.9661L16 15.2373L15.2881 15.9492L14.0169 14.983C13.8644 14.8305 13.6102 14.8305 13.4068 14.983C12.7458 15.4407 11.9322 15.7458 11.1186 15.8983C10.9153 15.9492 10.7627 16.1017 10.7119 16.3559L10.5085 17.9322H9.49152L9.28814 16.3559C9.23729 16.1525 9.08474 15.9492 8.88135 15.8983C8.06779 15.7458 7.30508 15.4407 6.59322 14.983C6.38983 14.8814 6.18644 14.8814 5.98305 14.983L4.71186 15.9492L4 15.2373L4.9661 13.9661C5.11864 13.8136 5.11864 13.5085 4.9661 13.3051C4.50847 12.6441 4.20339 11.8814 4.05085 11.0678C4 10.8644 3.84746 10.7119 3.59322 10.661L2.01695 10.4576V9.44068L3.59322 9.23729C3.79661 9.18644 4 9.0339 4.05085 8.83051C4.20339 8.01695 4.50847 7.25424 4.9661 6.54237C5.0678 6.33898 5.0678 6.13559 4.9661 5.9322L4 4.66102L4.71186 3.94915L5.98305 4.91525C6.13559 5.0678 6.44068 5.0678 6.64407 4.91525C7.30508 4.45763 8.06779 4.15254 8.88135 4C9.08474 3.94915 9.23729 3.79661 9.28814 3.54237L9.49152 1.9661H10.5085L10.7119 3.54237C10.7627 3.74576 10.9153 3.94915 11.1186 4C11.9322 4.15254 12.6949 4.45763 13.4068 4.91525C13.6102 5.01695 13.8136 5.01695 14.0169 4.91525L15.2881 3.94915L16 4.66102L15.0339 5.9322C14.8814 6.08475 14.8814 6.33898 15.0339 6.54237C15.4915 7.20339 15.7966 8.01695 15.9492 8.83051C16 9.0339 16.1525 9.18644 16.4068 9.23729L17.983 9.44068V10.4576Z"
          fill="white" stroke="white" stroke-width="0.25"/>
    <path d="M12.4913 6.38979C12.4404 6.38979 12.4404 6.38979 12.4913 6.38979C11.7794 5.88131 10.915 5.62708 10.0506 5.62708C7.66079 5.62708 5.67773 7.55928 5.67773 9.94911C5.67773 12.3389 7.60994 14.2711 10.0506 14.2711C12.4404 14.2711 14.4235 12.3389 14.4235 9.94911C14.3727 8.47453 13.6099 7.1525 12.4913 6.38979ZM9.99977 13.305C8.16926 13.305 6.64384 11.8305 6.64384 9.99996C6.64384 8.16945 8.11841 6.69487 9.99977 6.69487C11.8811 6.69487 13.3557 8.16945 13.3557 9.99996C13.3557 11.7796 11.8303 13.305 9.99977 13.305Z"
          fill="white" stroke="white" stroke-width="0.25"/>
</svg>
