<svg width="20" height="20" viewBox="0 0 20 20" fill="none" xmlns="http://www.w3.org/2000/svg">
<path d="M16.3618 1.81066C16.8539 1.81136 17.3256 2.00719 17.6735 2.35519C18.0215 2.7032 18.2172 3.17498 18.2177 3.66707V11.8394C18.2172 12.3315 18.0215 12.8033 17.6735 13.1513C17.3256 13.4993 16.8539 13.6951 16.3618 13.6958C16.0827 13.6963 15.8151 13.807 15.6171 14.0037C15.4191 14.2004 15.3067 14.4674 15.3044 14.7465L15.2889 17.44L11.6796 13.9882C11.4832 13.7998 11.2214 13.6948 10.9493 13.6953H3.66707C3.17498 13.6947 2.7032 13.499 2.35519 13.1511C2.00719 12.8032 1.81136 12.3315 1.81066 11.8394V3.66707C1.81122 3.17489 2.00698 2.70303 2.35501 2.35501C2.70303 2.00698 3.17489 1.81122 3.66707 1.81066C4.15925 1.8101 16.3618 1.81066 16.3618 1.81066ZM16.3618 1H3.66707C2.95972 1 2.28134 1.28099 1.78117 1.78117C1.28099 2.28134 1 2.95972 1 3.66707L1 11.8394C1 12.5468 1.28099 13.2251 1.78117 13.7253C2.28134 14.2255 2.95972 14.5065 3.66707 14.5065H10.9484C11.0117 14.5065 11.0726 14.531 11.1184 14.5747L15.6761 18.9313C15.7211 18.9753 15.7816 19 15.8446 19C15.91 19.0003 15.9728 18.9746 16.0192 18.9286C16.0657 18.8826 16.092 18.8201 16.0924 18.7547L16.1155 14.7511C16.116 14.686 16.1422 14.6237 16.1884 14.5779C16.2346 14.532 16.2971 14.5063 16.3622 14.5063C17.0693 14.5061 17.7475 14.225 18.2475 13.7249C18.7474 13.2248 19.0283 12.5466 19.0284 11.8394V3.66707C19.0284 2.95981 18.7474 2.28151 18.2474 1.78135C17.7473 1.2812 17.0691 1.00014 16.3618 1Z" fill="#B3BBD0" stroke="#B3BBD0" stroke-width="0.5"/>
<path d="M6.0569 8.15404C6.0569 8.81394 5.52195 9.34889 4.86204 9.34889C4.20214 9.34889 3.66719 8.81394 3.66719 8.15404C3.66719 7.49414 4.20214 6.95918 4.86204 6.95918C5.52195 6.95918 6.0569 7.49414 6.0569 8.15404Z" fill="#B3BBD0" stroke="#B3BBD0" stroke-width="1.1" stroke-miterlimit="10"/>
<path d="M11.135 8.15404C11.135 8.81394 10.6001 9.34889 9.94017 9.34889C9.28027 9.34889 8.74531 8.81394 8.74531 8.15404C8.74531 7.49414 9.28027 6.95918 9.94017 6.95918C10.6001 6.95918 11.135 7.49414 11.135 8.15404Z" fill="#B3BBD0" stroke="#B3BBD0" stroke-width="1.1" stroke-miterlimit="10"/>
<path d="M16.2132 8.15404C16.2132 8.81394 15.6782 9.34889 15.0183 9.34889C14.3584 9.34889 13.8234 8.81394 13.8234 8.15404C13.8234 7.49414 14.3584 6.95918 15.0183 6.95918C15.6782 6.95918 16.2132 7.49414 16.2132 8.15404Z" fill="#B3BBD0" stroke="#B3BBD0" stroke-width="1.1" stroke-miterlimit="10"/>
</svg>
