<svg width="21" height="14" viewBox="0 0 21 14" fill="none" xmlns="http://www.w3.org/2000/svg">
<path fill-rule="evenodd" clip-rule="evenodd" d="M11.6735 3.71819L11.6739 3.71895C11.7692 3.90586 11.9348 4.04732 12.1343 4.11227C12.3336 4.17718 12.5506 4.16037 12.7376 4.06553C13.3984 3.73527 14.1967 3.78051 14.819 4.15394C15.4377 4.52515 15.9091 5.19938 15.9091 6.31814V6.3189C15.9104 6.50509 15.9772 6.68486 16.0979 6.82665C16.2186 6.96845 16.3854 7.06317 16.5689 7.09422L16.5691 7.09424C17.7495 7.29229 18.6364 8.5085 18.6364 9.72723C18.6364 10.458 18.3561 11.1096 17.8365 11.5794C17.3165 12.0497 16.549 12.3445 15.5645 12.3445H4.42818C2.84912 12.3445 1.58364 11.079 1.58364 9.49996C1.58364 8.11089 2.56946 6.95946 3.87358 6.70316C4.0686 6.66679 4.24287 6.55855 4.36191 6.39983C4.48107 6.24095 4.53618 6.04309 4.51631 5.84549L4.5163 5.84538C4.30721 3.78639 5.93359 1.65541 8.29182 1.65541C9.92211 1.65541 11.1153 2.6016 11.6735 3.71819ZM13.7439 3.7341C13.3832 3.72575 13.0195 3.80162 12.6881 3.96729C12.5867 4.01877 12.4751 4.0436 12.3634 4.04098C12.4749 4.0435 12.5863 4.01866 12.6875 3.96727C13.019 3.80151 13.383 3.72565 13.7439 3.7341ZM4.35156 12.4535C2.74731 12.4137 1.47301 11.1144 1.47301 9.49994C1.47301 8.05731 2.4971 6.86117 3.85228 6.5951C4.02042 6.56388 4.17068 6.47062 4.27329 6.33382C4.37589 6.19701 4.42334 6.02663 4.40624 5.85648C4.19119 3.73883 5.86178 1.5454 8.29119 1.5454C8.30776 1.5454 8.32428 1.5455 8.34076 1.54569C8.32449 1.54551 8.30818 1.54541 8.29182 1.54541C5.86241 1.54541 4.19182 3.73884 4.40686 5.85649C4.42397 6.02665 4.37652 6.19702 4.27391 6.33383C4.17131 6.47064 4.02104 6.56389 3.85291 6.59512C2.49773 6.86118 1.47364 8.05732 1.47364 9.49996C1.47364 11.1142 2.7476 12.4133 4.35156 12.4535ZM8.29182 0.0717773C5.22378 0.0717773 3.01959 2.60392 2.94198 5.33747C1.22984 5.95186 0 7.58383 0 9.49996C0 11.9375 1.99066 13.9281 4.42818 13.9281H15.5645C18.2249 13.9281 20.22 12.0631 20.22 9.72723C20.22 7.97281 19.125 6.27118 17.4192 5.6955C17.2453 4.39375 16.5676 3.35702 15.6282 2.79342C14.745 2.26349 13.687 2.14887 12.6992 2.42579C11.7969 1.0993 10.26 0.0717773 8.29182 0.0717773ZM8.42288 0.183335C10.3189 0.22872 11.7934 1.25128 12.652 2.55392C12.6522 2.55387 12.6523 2.55382 12.6525 2.55377C11.7938 1.25107 10.3191 0.228508 8.42288 0.183335ZM4.37707 13.8178C4.39409 13.818 4.41112 13.8181 4.42818 13.8181H15.5645C18.1738 13.8181 20.11 11.9931 20.11 9.72723C20.11 7.99282 19.0127 6.31564 17.3188 5.77837C17.1637 4.47393 16.4955 3.44204 15.5716 2.88774C15.0416 2.5697 14.4458 2.40569 13.8407 2.39101C14.4456 2.40579 15.0411 2.56979 15.571 2.88773C16.4949 3.44203 17.1631 4.47392 17.3182 5.77835C19.012 6.31563 20.1094 7.99281 20.1094 9.72722C20.1094 11.9931 18.1731 13.8181 15.5639 13.8181H4.42756C4.41071 13.8181 4.39388 13.818 4.37707 13.8178Z" fill="#B3BBD0"/>
</svg>
