<svg width="20" height="20" viewBox="0 0 20 20" fill="none" xmlns="http://www.w3.org/2000/svg">
<path d="M9.07778 8.88023C8.82092 8.88023 8.56407 8.88023 8.30924 8.88023C7.69642 8.88023 7.08361 8.88023 6.47283 8.88023C5.72855 8.88023 4.98428 8.88023 4.24001 8.88023C3.59888 8.88023 2.95776 8.88023 2.31663 8.88023C2.00315 8.88023 1.68764 8.86385 1.37416 8.88023C1.37011 8.88023 1.36607 8.88023 1.36 8.88023C1.47933 9.00101 1.59865 9.12179 1.71798 9.24257C1.71798 8.99077 1.71798 8.74102 1.71798 8.48923C1.71798 7.89147 1.71798 7.29576 1.71798 6.698C1.71798 5.98765 1.71798 5.27729 1.71798 4.56899C1.71798 3.98147 1.71798 3.39394 1.71798 2.80642C1.71798 2.62832 1.71798 2.45022 1.71798 2.27212C1.71798 2.22504 1.71798 2.18 1.71798 2.13292C1.71798 2.12268 1.71798 2.1104 1.71798 2.10016C1.71798 2.09812 1.71798 2.09607 1.71798 2.09402C1.71798 2.09402 1.71798 2.09402 1.71798 2.09197C1.71798 2.08993 1.71798 2.06536 1.71798 2.06332C1.71798 1.99985 1.72 2.07764 1.71393 2.0756C1.71191 2.0756 1.73416 1.98348 1.73416 1.98143C1.7382 1.96915 1.74427 1.95482 1.74629 1.94253C1.74629 1.94663 1.71596 2.0019 1.73618 1.9671C1.75034 1.94458 1.76045 1.92002 1.77461 1.8975C1.78068 1.88522 1.78877 1.87498 1.79686 1.86474C1.77461 1.90159 1.76652 1.8975 1.79686 1.86474C1.81506 1.84632 1.83326 1.82585 1.85146 1.80947C1.86158 1.80128 1.87169 1.79309 1.8818 1.78286C1.87573 1.78695 1.82922 1.81357 1.86158 1.80128C1.88787 1.79105 1.91618 1.76853 1.94247 1.7542C1.95259 1.74806 1.98899 1.73987 1.94854 1.75011C1.90203 1.76239 1.96068 1.74806 1.96877 1.74601C1.99506 1.73987 2.02135 1.73373 2.04764 1.72759C2.09012 1.71735 2.02135 1.73373 2.02135 1.73168C2.02135 1.72963 2.06989 1.72963 2.07798 1.72963C2.08 1.72963 2.08 1.72963 2.08203 1.72963C2.09012 1.72963 2.10023 1.72963 2.10832 1.72963C2.22158 1.72963 2.33484 1.72963 2.44809 1.72963C2.95776 1.72963 3.46742 1.72963 3.97709 1.72963C4.66878 1.72963 5.36046 1.72963 6.05215 1.72963C6.69125 1.72963 7.33036 1.72963 7.96946 1.72963C8.32137 1.72963 8.6753 1.72963 9.02722 1.72963C9.0434 1.72963 9.0616 1.72963 9.07778 1.72963C8.95845 1.60885 8.83912 1.48807 8.7198 1.36729C8.7198 1.62728 8.7198 1.88726 8.7198 2.14929C8.7198 2.77571 8.7198 3.40008 8.7198 4.0265C8.7198 4.78803 8.7198 5.54751 8.7198 6.30904C8.7198 6.96412 8.7198 7.6192 8.7198 8.27428C8.7198 8.59158 8.70969 8.91298 8.7198 9.23029C8.7198 9.23438 8.7198 9.23847 8.7198 9.24462C8.7198 9.435 8.88362 9.61514 9.07778 9.60696C9.27193 9.59877 9.43576 9.44728 9.43576 9.24462C9.43576 8.98463 9.43576 8.72465 9.43576 8.46262C9.43576 7.8362 9.43576 7.21182 9.43576 6.58541C9.43576 5.82388 9.43576 5.06439 9.43576 4.30287C9.43576 3.64779 9.43576 2.99271 9.43576 2.33763C9.43576 2.02033 9.44587 1.69893 9.43576 1.38162C9.43576 1.37753 9.43576 1.37344 9.43576 1.36729C9.43576 1.17077 9.27193 1.00495 9.07778 1.00495C8.82497 1.00495 8.57013 1.00495 8.31733 1.00495C7.71665 1.00495 7.11597 1.00495 6.5153 1.00495C5.80541 1.00495 5.09552 1.00495 4.38563 1.00495C3.81529 1.00495 3.24293 1.00495 2.67259 1.00495C2.31866 1.00495 1.93236 0.964011 1.6027 1.11754C1.22045 1.29564 1.00202 1.70507 1 2.11859C1 2.23118 1 2.34377 1 2.45636C1 2.97428 1 3.49016 1 4.00808C1 4.71843 1 5.42878 1 6.13709C1 6.79216 1 7.44724 1 8.10232C1 8.46466 1 8.82905 1 9.19139C1 9.20777 1 9.22619 1 9.24257C1 9.43909 1.16382 9.60491 1.35798 9.60491C1.61483 9.60491 1.87169 9.60491 2.12652 9.60491C2.73933 9.60491 3.35214 9.60491 3.96293 9.60491C4.7072 9.60491 5.45147 9.60491 6.19575 9.60491C6.83687 9.60491 7.478 9.60491 8.11912 9.60491C8.43261 9.60491 8.74811 9.61514 9.0616 9.60491C9.06564 9.60491 9.06969 9.60491 9.07575 9.60491C9.26384 9.60491 9.44182 9.43909 9.43373 9.24257C9.42767 9.04604 9.278 8.88023 9.07778 8.88023Z" fill="#B3BBD0" stroke="#B3BBD0" stroke-width="0.5"/>
<path d="M10.9231 9.60487C11.1799 9.60487 11.4368 9.60487 11.6916 9.60487C12.3044 9.60487 12.9173 9.60487 13.528 9.60487C14.2723 9.60487 15.0166 9.60487 15.7609 9.60487C16.402 9.60487 17.0431 9.60487 17.6842 9.60487C17.9977 9.60487 18.3132 9.6151 18.6267 9.60487C18.6308 9.60487 18.6348 9.60487 18.6409 9.60487C18.835 9.60487 18.9988 9.43905 18.9988 9.24253C18.9988 8.98664 18.9988 8.73279 18.9988 8.4769C18.9988 7.87096 18.9988 7.26501 18.9988 6.65906C18.9988 5.93847 18.9988 5.21993 18.9988 4.49935C18.9988 3.91387 18.9988 3.32839 18.9988 2.74292C18.9988 2.57505 18.9988 2.40719 18.9988 2.23932C18.9988 2.08374 19.0009 1.92816 18.9523 1.77872C18.8067 1.31403 18.386 1.00901 17.9087 1.00696C17.8056 1.00696 17.7045 1.00696 17.6013 1.00696C17.0997 1.00696 16.5982 1.00696 16.0966 1.00696C15.3968 1.00696 14.6991 1.00696 13.9993 1.00696C13.3501 1.00696 12.7029 1.00696 12.0537 1.00696C11.6937 1.00696 11.3337 1.00696 10.9716 1.00696C10.9554 1.00696 10.9372 1.00696 10.9211 1.00696C10.7269 1.00696 10.5631 1.17277 10.5631 1.3693C10.5631 1.62928 10.5631 1.88927 10.5631 2.1513C10.5631 2.77772 10.5631 3.40209 10.5631 4.02851C10.5631 4.79004 10.5631 5.54952 10.5631 6.31105C10.5631 6.96613 10.5631 7.62121 10.5631 8.27628C10.5631 8.59359 10.553 8.91499 10.5631 9.23229C10.5631 9.23638 10.5631 9.24048 10.5631 9.24662C10.5651 9.43291 10.7289 9.6151 10.9231 9.60487C11.1172 9.59668 11.2811 9.44519 11.2811 9.24253C11.2811 8.98254 11.2811 8.72256 11.2811 8.46053C11.2811 7.83411 11.2811 7.20974 11.2811 6.58332C11.2811 5.82179 11.2811 5.06231 11.2811 4.30078C11.2811 3.6457 11.2811 2.99062 11.2811 2.33554C11.2811 2.01824 11.2972 1.69684 11.2811 1.37953C11.2811 1.37544 11.2811 1.37135 11.2811 1.3652C11.1617 1.48598 11.0424 1.60676 10.9231 1.72754C11.1719 1.72754 11.4206 1.72754 11.6714 1.72754C12.264 1.72754 12.8546 1.72754 13.4471 1.72754C14.1469 1.72754 14.8487 1.72754 15.5485 1.72754C16.1209 1.72754 16.6952 1.72754 17.2676 1.72754C17.4375 1.72754 17.6054 1.72754 17.7752 1.72754C17.8157 1.72754 17.8582 1.72754 17.8986 1.72754C17.9067 1.72754 17.9148 1.72754 17.9229 1.72754H17.9249C17.9269 1.72754 17.9755 1.7255 17.9815 1.72959C17.9815 1.72959 17.9128 1.71526 17.9552 1.7255C17.9856 1.73164 18.0159 1.73983 18.0463 1.74802C18.0543 1.75006 18.0988 1.7603 18.0543 1.74802C18.0078 1.73573 18.0584 1.75006 18.0725 1.75825C18.0948 1.77053 18.117 1.78896 18.1413 1.79919C18.1737 1.81148 18.1272 1.78691 18.1211 1.78077C18.1312 1.78896 18.1413 1.79715 18.1514 1.80738C18.1777 1.83195 18.2 1.85856 18.2242 1.88313C18.2525 1.91179 18.2101 1.86675 18.2081 1.86265C18.2141 1.87494 18.2222 1.88517 18.2303 1.89541C18.2424 1.91793 18.2546 1.94249 18.2687 1.96501C18.289 1.99981 18.2586 1.94454 18.2586 1.94045C18.2627 1.95682 18.2708 1.97525 18.2748 1.99162C18.2788 2.00391 18.2809 2.01824 18.2849 2.03257C18.2869 2.04485 18.289 2.10012 18.289 2.05304C18.289 2.01005 18.2869 2.07556 18.2869 2.09807C18.2869 2.11036 18.2869 2.12059 18.2869 2.13287C18.2869 2.2557 18.2869 2.37853 18.2869 2.50136C18.2869 3.02747 18.2869 3.55153 18.2869 4.07764C18.2869 4.7798 18.2869 5.48197 18.2869 6.18413C18.2869 6.82897 18.2869 7.47586 18.2869 8.1207C18.2869 8.4769 18.2869 8.83105 18.2869 9.18725C18.2869 9.20363 18.2869 9.22205 18.2869 9.23843C18.4063 9.11765 18.5256 8.99687 18.6449 8.87609C18.3881 8.87609 18.1312 8.87609 17.8764 8.87609C17.2636 8.87609 16.6507 8.87609 16.04 8.87609C15.2957 8.87609 14.5514 8.87609 13.8071 8.87609C13.166 8.87609 12.5249 8.87609 11.8838 8.87609C11.5703 8.87609 11.2548 8.86586 10.9413 8.87609C10.9372 8.87609 10.9332 8.87609 10.9271 8.87609C10.739 8.87609 10.5611 9.04191 10.5692 9.23843C10.5732 9.43905 10.7229 9.60487 10.9231 9.60487Z" fill="#B3BBD0"/>
<path d="M10.9231 9.60487C11.1799 9.60487 11.4368 9.60487 11.6916 9.60487C12.3044 9.60487 12.9173 9.60487 13.528 9.60487C14.2723 9.60487 15.0166 9.60487 15.7609 9.60487C16.402 9.60487 17.0431 9.60487 17.6842 9.60487C17.9977 9.60487 18.3132 9.6151 18.6267 9.60487C18.6308 9.60487 18.6348 9.60487 18.6409 9.60487C18.835 9.60487 18.9988 9.43905 18.9988 9.24253C18.9988 8.98664 18.9988 8.73279 18.9988 8.4769C18.9988 7.87096 18.9988 7.26501 18.9988 6.65906C18.9988 5.93847 18.9988 5.21993 18.9988 4.49935C18.9988 3.91387 18.9988 3.32839 18.9988 2.74292C18.9988 2.57505 18.9988 2.40719 18.9988 2.23932C18.9988 2.08374 19.0009 1.92816 18.9523 1.77872C18.8067 1.31403 18.386 1.00901 17.9087 1.00696C17.8056 1.00696 17.7045 1.00696 17.6013 1.00696C17.0997 1.00696 16.5982 1.00696 16.0966 1.00696C15.3968 1.00696 14.6991 1.00696 13.9993 1.00696C13.3501 1.00696 12.7029 1.00696 12.0537 1.00696C11.6937 1.00696 11.3337 1.00696 10.9716 1.00696C10.9554 1.00696 10.9372 1.00696 10.9211 1.00696C10.7269 1.00696 10.5631 1.17277 10.5631 1.3693C10.5631 1.62928 10.5631 1.88927 10.5631 2.1513C10.5631 2.77772 10.5631 3.40209 10.5631 4.02851C10.5631 4.79004 10.5631 5.54952 10.5631 6.31105C10.5631 6.96613 10.5631 7.62121 10.5631 8.27628C10.5631 8.59359 10.553 8.91499 10.5631 9.23229C10.5631 9.23638 10.5631 9.24048 10.5631 9.24662C10.5651 9.43291 10.7289 9.6151 10.9231 9.60487ZM10.9231 9.60487C11.1172 9.59668 11.2811 9.44519 11.2811 9.24253C11.2811 8.98254 11.2811 8.72256 11.2811 8.46053C11.2811 7.83411 11.2811 7.20974 11.2811 6.58332C11.2811 5.82179 11.2811 5.06231 11.2811 4.30078C11.2811 3.6457 11.2811 2.99062 11.2811 2.33554C11.2811 2.01824 11.2972 1.69684 11.2811 1.37953C11.2811 1.37544 11.2811 1.37135 11.2811 1.3652C11.1617 1.48598 11.0424 1.60676 10.9231 1.72754C11.1719 1.72754 11.4206 1.72754 11.6714 1.72754C12.264 1.72754 12.8546 1.72754 13.4471 1.72754C14.1469 1.72754 14.8487 1.72754 15.5485 1.72754C16.1209 1.72754 16.6952 1.72754 17.2676 1.72754C17.4375 1.72754 17.6054 1.72754 17.7752 1.72754C17.8157 1.72754 17.8582 1.72754 17.8986 1.72754C17.9067 1.72754 17.9148 1.72754 17.9229 1.72754H17.9249C17.9269 1.72754 17.9755 1.7255 17.9815 1.72959C17.9815 1.72959 17.9128 1.71526 17.9552 1.7255C17.9856 1.73164 18.0159 1.73983 18.0463 1.74802C18.0543 1.75006 18.0988 1.7603 18.0543 1.74802C18.0078 1.73573 18.0584 1.75006 18.0725 1.75825C18.0948 1.77053 18.117 1.78896 18.1413 1.79919C18.1737 1.81148 18.1272 1.78691 18.1211 1.78077C18.1312 1.78896 18.1413 1.79715 18.1514 1.80738C18.1777 1.83195 18.2 1.85856 18.2242 1.88313C18.2525 1.91179 18.2101 1.86675 18.2081 1.86265C18.2141 1.87494 18.2222 1.88517 18.2303 1.89541C18.2424 1.91793 18.2546 1.94249 18.2687 1.96501C18.289 1.99981 18.2586 1.94454 18.2586 1.94045C18.2627 1.95682 18.2708 1.97525 18.2748 1.99162C18.2788 2.00391 18.2809 2.01824 18.2849 2.03257C18.2869 2.04485 18.289 2.10012 18.289 2.05304C18.289 2.01005 18.2869 2.07556 18.2869 2.09807C18.2869 2.11036 18.2869 2.12059 18.2869 2.13287C18.2869 2.2557 18.2869 2.37853 18.2869 2.50136C18.2869 3.02747 18.2869 3.55153 18.2869 4.07764C18.2869 4.7798 18.2869 5.48197 18.2869 6.18413C18.2869 6.82897 18.2869 7.47586 18.2869 8.1207C18.2869 8.4769 18.2869 8.83105 18.2869 9.18725C18.2869 9.20363 18.2869 9.22205 18.2869 9.23843C18.4063 9.11765 18.5256 8.99687 18.6449 8.87609C18.3881 8.87609 18.1312 8.87609 17.8764 8.87609C17.2636 8.87609 16.6507 8.87609 16.04 8.87609C15.2957 8.87609 14.5514 8.87609 13.8071 8.87609C13.166 8.87609 12.5249 8.87609 11.8838 8.87609C11.5703 8.87609 11.2548 8.86586 10.9413 8.87609C10.9372 8.87609 10.9332 8.87609 10.9271 8.87609C10.739 8.87609 10.5611 9.04191 10.5692 9.23843C10.5732 9.43905 10.7229 9.60487 10.9231 9.60487Z" stroke="#B3BBD0" stroke-width="0.5"/>
<path d="M9.07772 10.3954C8.82087 10.3954 8.56401 10.3954 8.30918 10.3954C7.69637 10.3954 7.08356 10.3954 6.47277 10.3954C5.7285 10.3954 4.98422 10.3954 4.23995 10.3954C3.59883 10.3954 2.9577 10.3954 2.31658 10.3954C2.00309 10.3954 1.68759 10.3852 1.3741 10.3954C1.37006 10.3954 1.36601 10.3954 1.35994 10.3954C1.16579 10.3954 1.00197 10.5612 1.00197 10.7578C1.00197 11.0136 1.00197 11.2675 1.00197 11.5234C1.00197 12.1293 1.00197 12.7353 1.00197 13.3412C1.00197 14.0618 1.00197 14.7804 1.00197 15.5009C1.00197 16.0864 1.00197 16.6719 1.00197 17.2574C1.00197 17.4252 1.00197 17.5931 1.00197 17.761C1.00197 17.9165 0.999943 18.0721 1.04848 18.2216C1.1941 18.6863 1.61478 18.9913 2.09208 18.9933C2.19523 18.9933 2.29635 18.9933 2.3995 18.9933C2.90107 18.9933 3.40265 18.9933 3.90422 18.9933C4.604 18.9933 5.30175 18.9933 6.00153 18.9933C6.65075 18.9933 7.29794 18.9933 7.94716 18.9933C8.30716 18.9933 8.66716 18.9933 9.02918 18.9933C9.04536 18.9933 9.06356 18.9933 9.07974 18.9933C9.2739 18.9933 9.43772 18.8275 9.43772 18.631C9.43772 18.371 9.43772 18.111 9.43772 17.849C9.43772 17.2226 9.43772 16.5982 9.43772 15.9718C9.43772 15.2102 9.43772 14.4508 9.43772 13.6892C9.43772 13.0342 9.43772 12.3791 9.43772 11.724C9.43772 11.4067 9.44783 11.0853 9.43772 10.768C9.43772 10.7639 9.43772 10.7598 9.43772 10.7537C9.4357 10.5674 9.27188 10.3852 9.07772 10.3954C8.88356 10.4036 8.71974 10.5551 8.71974 10.7578C8.71974 11.0177 8.71974 11.2777 8.71974 11.5398C8.71974 12.1662 8.71974 12.7906 8.71974 13.417C8.71974 14.1785 8.71974 14.938 8.71974 15.6995C8.71974 16.3546 8.71974 17.0097 8.71974 17.6647C8.71974 17.982 8.70356 18.3034 8.71974 18.6208C8.71974 18.6248 8.71974 18.6289 8.71974 18.6351C8.83907 18.5143 8.95839 18.3935 9.07772 18.2727C8.82896 18.2727 8.58019 18.2727 8.3294 18.2727C7.73682 18.2727 7.14625 18.2727 6.55367 18.2727C5.85389 18.2727 5.15209 18.2727 4.45231 18.2727C3.87995 18.2727 3.30557 18.2727 2.73321 18.2727C2.56332 18.2727 2.39545 18.2727 2.22556 18.2727C2.18511 18.2727 2.14264 18.2727 2.10219 18.2727C2.0941 18.2727 2.08601 18.2727 2.07792 18.2727H2.0759C2.07388 18.2727 2.02534 18.2748 2.01927 18.2707C2.01927 18.2707 2.08804 18.285 2.04556 18.2748C2.01523 18.2686 1.98489 18.2605 1.95455 18.2523C1.94646 18.2502 1.90197 18.24 1.94646 18.2523C1.99298 18.2646 1.94242 18.2502 1.92826 18.242C1.90601 18.2298 1.88377 18.2113 1.8595 18.2011C1.82714 18.1888 1.87365 18.2134 1.87972 18.2195C1.86961 18.2113 1.8595 18.2031 1.84938 18.1929C1.82309 18.1683 1.80084 18.1417 1.77657 18.1172C1.74826 18.0885 1.79073 18.1335 1.79275 18.1376C1.78669 18.1253 1.7786 18.1151 1.77051 18.1049C1.75837 18.0824 1.74624 18.0578 1.73208 18.0353C1.71185 18.0005 1.74219 18.0557 1.74219 18.0598C1.73815 18.0435 1.73006 18.025 1.72601 18.0087C1.72197 17.9964 1.71994 17.982 1.7159 17.9677C1.71388 17.9554 1.71185 17.9002 1.71185 17.9472C1.71185 17.9902 1.71388 17.9247 1.71388 17.9022C1.71388 17.8899 1.71388 17.8797 1.71388 17.8674C1.71388 17.7446 1.71388 17.6218 1.71388 17.4989C1.71388 16.9728 1.71388 16.4488 1.71388 15.9226C1.71388 15.2205 1.71388 14.5183 1.71388 13.8162C1.71388 13.1713 1.71388 12.5244 1.71388 11.8796C1.71388 11.5234 1.71388 11.1692 1.71388 10.813C1.71388 10.7967 1.71388 10.7782 1.71388 10.7619C1.59455 10.8826 1.47522 11.0034 1.3559 11.1242C1.61275 11.1242 1.86961 11.1242 2.12444 11.1242C2.73725 11.1242 3.35006 11.1242 3.96085 11.1242C4.70512 11.1242 5.44939 11.1242 6.19367 11.1242C6.83479 11.1242 7.47592 11.1242 8.11704 11.1242C8.43053 11.1242 8.74603 11.1344 9.05952 11.1242C9.06356 11.1242 9.06761 11.1242 9.07368 11.1242C9.26177 11.1242 9.43974 10.9584 9.43165 10.7619C9.42761 10.5612 9.27795 10.3954 9.07772 10.3954Z" fill="#B3BBD0"/>
<path d="M9.07772 10.3954C8.82087 10.3954 8.56401 10.3954 8.30918 10.3954C7.69637 10.3954 7.08356 10.3954 6.47277 10.3954C5.7285 10.3954 4.98422 10.3954 4.23995 10.3954C3.59883 10.3954 2.9577 10.3954 2.31658 10.3954C2.00309 10.3954 1.68759 10.3852 1.3741 10.3954C1.37006 10.3954 1.36601 10.3954 1.35994 10.3954C1.16579 10.3954 1.00197 10.5612 1.00197 10.7578C1.00197 11.0136 1.00197 11.2675 1.00197 11.5234C1.00197 12.1293 1.00197 12.7353 1.00197 13.3412C1.00197 14.0618 1.00197 14.7804 1.00197 15.5009C1.00197 16.0864 1.00197 16.6719 1.00197 17.2574C1.00197 17.4252 1.00197 17.5931 1.00197 17.761C1.00197 17.9165 0.999943 18.0721 1.04848 18.2216C1.1941 18.6863 1.61478 18.9913 2.09208 18.9933C2.19523 18.9933 2.29635 18.9933 2.3995 18.9933C2.90107 18.9933 3.40265 18.9933 3.90422 18.9933C4.604 18.9933 5.30175 18.9933 6.00153 18.9933C6.65075 18.9933 7.29794 18.9933 7.94716 18.9933C8.30716 18.9933 8.66716 18.9933 9.02918 18.9933C9.04536 18.9933 9.06356 18.9933 9.07974 18.9933C9.2739 18.9933 9.43772 18.8275 9.43772 18.631C9.43772 18.371 9.43772 18.111 9.43772 17.849C9.43772 17.2226 9.43772 16.5982 9.43772 15.9718C9.43772 15.2102 9.43772 14.4508 9.43772 13.6892C9.43772 13.0342 9.43772 12.3791 9.43772 11.724C9.43772 11.4067 9.44783 11.0853 9.43772 10.768C9.43772 10.7639 9.43772 10.7598 9.43772 10.7537C9.4357 10.5674 9.27188 10.3852 9.07772 10.3954ZM9.07772 10.3954C8.88356 10.4036 8.71974 10.5551 8.71974 10.7578C8.71974 11.0177 8.71974 11.2777 8.71974 11.5398C8.71974 12.1662 8.71974 12.7906 8.71974 13.417C8.71974 14.1785 8.71974 14.938 8.71974 15.6995C8.71974 16.3546 8.71974 17.0097 8.71974 17.6647C8.71974 17.9821 8.70356 18.3034 8.71974 18.6208C8.71974 18.6248 8.71974 18.6289 8.71974 18.6351C8.83907 18.5143 8.95839 18.3935 9.07772 18.2727C8.82896 18.2727 8.58019 18.2727 8.3294 18.2727C7.73682 18.2727 7.14625 18.2727 6.55367 18.2727C5.85389 18.2727 5.15209 18.2727 4.45231 18.2727C3.87995 18.2727 3.30557 18.2727 2.73321 18.2727C2.56332 18.2727 2.39545 18.2727 2.22556 18.2727C2.18511 18.2727 2.14264 18.2727 2.10219 18.2727C2.0941 18.2727 2.08601 18.2727 2.07792 18.2727H2.0759C2.07388 18.2727 2.02534 18.2748 2.01927 18.2707C2.01927 18.2707 2.08804 18.285 2.04556 18.2748C2.01523 18.2686 1.98489 18.2605 1.95455 18.2523C1.94646 18.2502 1.90197 18.24 1.94646 18.2523C1.99298 18.2646 1.94242 18.2502 1.92826 18.242C1.90601 18.2298 1.88377 18.2113 1.8595 18.2011C1.82714 18.1888 1.87365 18.2134 1.87972 18.2195C1.86961 18.2113 1.8595 18.2031 1.84938 18.1929C1.82309 18.1683 1.80084 18.1417 1.77657 18.1172C1.74826 18.0885 1.79073 18.1335 1.79275 18.1376C1.78669 18.1253 1.7786 18.1151 1.77051 18.1049C1.75837 18.0824 1.74624 18.0578 1.73208 18.0353C1.71185 18.0005 1.74219 18.0557 1.74219 18.0598C1.73815 18.0435 1.73006 18.025 1.72601 18.0087C1.72197 17.9964 1.71994 17.982 1.7159 17.9677C1.71388 17.9554 1.71185 17.9002 1.71185 17.9472C1.71185 17.9902 1.71388 17.9247 1.71388 17.9022C1.71388 17.8899 1.71388 17.8797 1.71388 17.8674C1.71388 17.7446 1.71388 17.6218 1.71388 17.4989C1.71388 16.9728 1.71388 16.4488 1.71388 15.9226C1.71388 15.2205 1.71388 14.5183 1.71388 13.8162C1.71388 13.1713 1.71388 12.5244 1.71388 11.8796C1.71388 11.5234 1.71388 11.1692 1.71388 10.813C1.71388 10.7967 1.71388 10.7782 1.71388 10.7619C1.59455 10.8826 1.47522 11.0034 1.3559 11.1242C1.61275 11.1242 1.86961 11.1242 2.12444 11.1242C2.73725 11.1242 3.35006 11.1242 3.96085 11.1242C4.70512 11.1242 5.44939 11.1242 6.19367 11.1242C6.83479 11.1242 7.47592 11.1242 8.11704 11.1242C8.43053 11.1242 8.74603 11.1344 9.05952 11.1242C9.06356 11.1242 9.06761 11.1242 9.07368 11.1242C9.26177 11.1242 9.43974 10.9584 9.43165 10.7619C9.42761 10.5612 9.27795 10.3954 9.07772 10.3954Z" stroke="#B3BBD0" stroke-width="0.5"/>
<path d="M10.923 11.1197C11.1799 11.1197 11.4367 11.1197 11.6916 11.1197C12.3044 11.1197 12.9172 11.1197 13.528 11.1197C14.2722 11.1197 15.0165 11.1197 15.7608 11.1197C16.4019 11.1197 17.043 11.1197 17.6842 11.1197C17.9976 11.1197 18.3132 11.1361 18.6266 11.1197C18.6307 11.1197 18.6347 11.1197 18.6408 11.1197C18.5215 10.999 18.4021 10.8782 18.2828 10.7574C18.2828 11.0092 18.2828 11.2589 18.2828 11.5107C18.2828 12.1085 18.2828 12.7042 18.2828 13.302C18.2828 14.0123 18.2828 14.7227 18.2828 15.431C18.2828 16.0185 18.2828 16.606 18.2828 17.1935C18.2828 17.3716 18.2828 17.5497 18.2828 17.7278C18.2828 17.7749 18.2828 17.82 18.2828 17.867C18.2828 17.8773 18.2828 17.8896 18.2828 17.8998C18.2828 17.9018 18.2828 17.9039 18.2828 17.9059C18.2828 17.9059 18.2828 17.9059 18.2828 17.908C18.2828 17.91 18.2828 17.9346 18.2828 17.9366C18.2828 18.0001 18.2808 17.9223 18.2869 17.9244C18.2889 17.9244 18.2666 18.0165 18.2666 18.0185C18.2626 18.0308 18.2565 18.0451 18.2545 18.0574C18.2545 18.0533 18.2848 17.9981 18.2646 18.0329C18.2505 18.0554 18.2403 18.0799 18.2262 18.1025C18.2201 18.1147 18.212 18.125 18.2039 18.1352C18.2262 18.0984 18.2343 18.1025 18.2039 18.1352C18.1857 18.1536 18.1675 18.1741 18.1493 18.1905C18.1392 18.1987 18.1291 18.2069 18.119 18.2171C18.1251 18.213 18.1716 18.1864 18.1392 18.1987C18.1129 18.2089 18.0846 18.2314 18.0583 18.2458C18.0482 18.2519 18.0118 18.2601 18.0523 18.2499C18.0988 18.2376 18.0401 18.2519 18.032 18.254C18.0057 18.2601 17.9794 18.2662 17.9532 18.2724C17.9107 18.2826 17.9794 18.2662 17.9794 18.2683C17.9794 18.2703 17.9309 18.2703 17.9228 18.2703C17.9208 18.2703 17.9208 18.2703 17.9188 18.2703C17.9107 18.2703 17.9006 18.2703 17.8925 18.2703C17.7792 18.2703 17.666 18.2703 17.5527 18.2703C17.043 18.2703 16.5334 18.2703 16.0237 18.2703C15.332 18.2703 14.6403 18.2703 13.9486 18.2703C13.3095 18.2703 12.6704 18.2703 12.0313 18.2703C11.6794 18.2703 11.3255 18.2703 10.9736 18.2703C10.9574 18.2703 10.9392 18.2703 10.923 18.2703C11.0423 18.3911 11.1617 18.5119 11.281 18.6327C11.281 18.3727 11.281 18.1127 11.281 17.8507C11.281 17.2242 11.281 16.5999 11.281 15.9735C11.281 15.2119 11.281 14.4524 11.281 13.6909C11.281 13.0358 11.281 12.3808 11.281 11.7257C11.281 11.4084 11.2911 11.087 11.281 10.7697C11.281 10.7656 11.281 10.7615 11.281 10.7553C11.281 10.565 11.1172 10.3848 10.923 10.393C10.7289 10.4012 10.565 10.5527 10.565 10.7553C10.565 11.0153 10.565 11.2753 10.565 11.5373C10.565 12.1638 10.565 12.7881 10.565 13.4146C10.565 14.1761 10.565 14.9356 10.565 15.6971C10.565 16.3522 10.565 17.0073 10.565 17.6623C10.565 17.9796 10.5549 18.301 10.565 18.6183C10.565 18.6224 10.565 18.6265 10.565 18.6327C10.565 18.8292 10.7289 18.995 10.923 18.995C11.1758 18.995 11.4307 18.995 11.6835 18.995C12.2841 18.995 12.8848 18.995 13.4855 18.995C14.1954 18.995 14.9053 18.995 15.6152 18.995C16.1855 18.995 16.7579 18.995 17.3282 18.995C17.6821 18.995 18.0684 19.036 18.3981 18.8824C18.7803 18.7043 18.9988 18.2949 19.0008 17.8814C19.0008 17.7688 19.0008 17.6562 19.0008 17.5436C19.0008 17.0257 19.0008 16.5098 19.0008 15.9919C19.0008 15.2815 19.0008 14.5712 19.0008 13.8629C19.0008 13.2078 19.0008 12.5527 19.0008 11.8976C19.0008 11.5353 19.0008 11.1709 19.0008 10.8086C19.0008 10.7922 19.0008 10.7738 19.0008 10.7574C19.0008 10.5609 18.837 10.3951 18.6428 10.3951C18.386 10.3951 18.1291 10.3951 17.8743 10.3951C17.2615 10.3951 16.6487 10.3951 16.0379 10.3951C15.2936 10.3951 14.5493 10.3951 13.8051 10.3951C13.1639 10.3951 12.5228 10.3951 11.8817 10.3951C11.5682 10.3951 11.2527 10.3848 10.9392 10.3951C10.9352 10.3951 10.9311 10.3951 10.925 10.3951C10.737 10.3951 10.559 10.5609 10.5671 10.7574C10.5731 10.9539 10.7228 11.1197 10.923 11.1197Z" fill="#B3BBD0" stroke="#B3BBD0" stroke-width="0.5"/>
</svg>
