<svg width="18" height="18" viewBox="0 0 18 18" fill="none" xmlns="http://www.w3.org/2000/svg">
<path d="M9.8274 3.03137C10.0158 3.03137 10.1966 2.95651 10.3298 2.82327C10.4631 2.69002 10.5379 2.5093 10.5379 2.32086C10.5379 2.13242 10.4631 1.9517 10.3298 1.81846C10.1966 1.68521 10.0158 1.61035 9.8274 1.61035H7.60113C7.4127 1.61035 7.23198 1.68521 7.09873 1.81846C6.96548 1.9517 6.89062 2.13242 6.89062 2.32086C6.89062 2.5093 6.96548 2.69002 7.09873 2.82327C7.23198 2.95651 7.4127 3.03137 7.60113 3.03137H9.8274Z" fill="#B3BBD0"/>
<path d="M2.10785 3.03137H2.81836V1.61035H2.10785C1.54881 1.61035 1.01267 1.83243 0.617374 2.22773C0.222076 2.62302 0 3.15916 0 3.7182V15.8916C0 16.4506 0.222076 16.9868 0.617374 17.3821C1.01267 17.7774 1.54881 17.9994 2.10785 17.9994H15.3233C15.8824 17.9994 16.4185 17.7774 16.8138 17.3821C17.2091 16.9868 17.4312 16.4506 17.4312 15.8916V3.7182C17.4312 3.15916 17.2091 2.62302 16.8138 2.22773C16.4185 1.83243 15.8824 1.61035 15.3233 1.61035H14.6128V3.03137H15.3233C15.5055 3.03137 15.6802 3.10373 15.809 3.23254C15.9378 3.36134 16.0102 3.53604 16.0102 3.7182V6.53655H1.39734V3.7182C1.39728 3.62597 1.4158 3.53468 1.45179 3.44977C1.48778 3.36486 1.5405 3.28807 1.6068 3.22397C1.67311 3.15987 1.75165 3.10978 1.83773 3.07669C1.92381 3.04361 2.01568 3.02819 2.10785 3.03137ZM16.0338 7.95757V15.8916C16.0339 15.9838 16.0154 16.0751 15.9794 16.16C15.9434 16.2449 15.8907 16.3217 15.8244 16.3858C15.7581 16.4499 15.6795 16.5 15.5934 16.5331C15.5074 16.5662 15.4155 16.5816 15.3233 16.5784H2.10785C1.92569 16.5784 1.75099 16.5061 1.62219 16.3773C1.49338 16.2485 1.42102 16.0738 1.42102 15.8916V7.95757H16.0338Z" fill="#B3BBD0"/>
<path d="M5.56164 3.52886V0.71051C5.56164 0.522071 5.48679 0.34135 5.35354 0.208103C5.22029 0.074857 5.03957 0 4.85113 0C4.6627 0 4.48197 0.074857 4.34873 0.208103C4.21548 0.34135 4.14063 0.522071 4.14062 0.71051V3.55255C4.14063 3.74099 4.21548 3.92171 4.34873 4.05496C4.48197 4.1882 4.6627 4.26306 4.85113 4.26306C5.03957 4.26306 5.22029 4.1882 5.35354 4.05496C5.48679 3.92171 5.56164 3.74099 5.56164 3.55255V3.52886Z" fill="#B3BBD0"/>
<path d="M13.2882 3.52886V0.71051C13.2882 0.522071 13.2133 0.34135 13.0801 0.208103C12.9469 0.074857 12.7661 0 12.5777 0C12.3893 0 12.2085 0.074857 12.0753 0.208103C11.942 0.34135 11.8672 0.522071 11.8672 0.71051V3.55255C11.8672 3.74099 11.942 3.92171 12.0753 4.05496C12.2085 4.1882 12.3893 4.26306 12.5777 4.26306C12.7661 4.26306 12.9469 4.1882 13.0801 4.05496C13.2133 3.92171 13.2882 3.74099 13.2882 3.55255V3.52886Z" fill="#B3BBD0"/>
</svg>
