<svg width="18" height="18" viewBox="0 0 18 18" fill="none" xmlns="http://www.w3.org/2000/svg">
<path fill-rule="evenodd" clip-rule="evenodd" d="M7.5 5.8125V1.5H16.5V10.1246H12V6.8125C12 6.26022 11.5523 5.8125 11 5.8125H7.5ZM6 5.8125V1C6 0.447715 6.44772 0 7 0H17C17.5523 0 18 0.447715 18 1V10.6246C18 11.1769 17.5523 11.6246 17 11.6246H12V16.4371C12 16.9894 11.5523 17.4371 11 17.4371H1C0.447715 17.4371 0 16.9894 0 16.4371V6.8125C0 6.26021 0.447715 5.8125 1 5.8125H6ZM10.5 11.6246V15.9371H1.5V7.3125H6V10.6246C6 11.1769 6.44771 11.6246 7 11.6246H10.5ZM10.5 10.1246H7.5V7.3125H10.5V10.1246Z" fill="#F2C94C"/>
</svg>
