<svg width="22" height="20" viewBox="0 0 22 20" fill="none" xmlns="http://www.w3.org/2000/svg">
<path d="M15 12.3724C15 11.6946 14.5192 11.1297 13.8846 10.9603V10.3766C13.8846 10.1695 13.7116 10 13.5 10C13.2884 10 13.1154 10.1695 13.1154 10.3766V10.9603C12.4808 11.1297 12 11.6946 12 12.3724C12 13.0502 12.4808 13.6151 13.1154 13.7845V18.6235C13.1154 18.8306 13.2884 19 13.5 19C13.7116 19 13.8846 18.8306 13.8846 18.6235V13.7845C14.5192 13.6151 15 13.0502 15 12.3724ZM13.5 13.0879C13.0962 13.0879 12.7692 12.7678 12.7692 12.3724C12.7692 11.977 13.0962 11.6569 13.5 11.6569C13.9038 11.6569 14.2308 11.977 14.2308 12.3724C14.2308 12.7678 13.9038 13.0879 13.5 13.0879Z" fill="#B3BBD0" stroke="#B3BBD0" stroke-width="0.3"/>
<path d="M21 12.3724C21 11.6946 20.5192 11.1297 19.8846 10.9603V10.3766C19.8846 10.1695 19.7116 10 19.5 10C19.2884 10 19.1154 10.1695 19.1154 10.3766V10.9603C18.4808 11.1297 18 11.6946 18 12.3724C18 13.0502 18.4808 13.6151 19.1154 13.7845V18.6235C19.1154 18.8306 19.2884 19 19.5 19C19.7116 19 19.8846 18.8306 19.8846 18.6235V13.7845C20.5192 13.6151 21 13.0502 21 12.3724ZM19.5 13.0879C19.0962 13.0879 18.7692 12.7678 18.7692 12.3724C18.7692 11.977 19.0962 11.6569 19.5 11.6569C19.9038 11.6569 20.2308 11.977 20.2308 12.3724C20.2308 12.7678 19.9038 13.0879 19.5 13.0879Z" fill="#B3BBD0" stroke="#B3BBD0" stroke-width="0.3"/>
<path d="M18 16.6276C18 17.3054 17.5192 17.8703 16.8846 18.0397V18.6234C16.8846 18.8305 16.7116 19 16.5 19C16.2884 19 16.1154 18.8305 16.1154 18.6234V18.0397C15.4808 17.8703 15 17.3054 15 16.6276C15 15.9498 15.4808 15.3849 16.1154 15.2155V10.3765C16.1154 10.1694 16.2884 10 16.5 10C16.7116 10 16.8846 10.1694 16.8846 10.3765V15.2155C17.5192 15.3849 18 15.9498 18 16.6276ZM16.5 15.9121C16.0962 15.9121 15.7692 16.2322 15.7692 16.6276C15.7692 17.023 16.0962 17.3431 16.5 17.3431C16.9038 17.3431 17.2308 17.023 17.2308 16.6276C17.2308 16.2322 16.9038 15.9121 16.5 15.9121Z" fill="#B3BBD0" stroke="#B3BBD0" stroke-width="0.3"/>
<path fill-rule="evenodd" clip-rule="evenodd" d="M10.101 19H10.1039C10.3674 19 10.5815 18.7909 10.5829 18.5318C10.5844 18.2718 10.3712 18.0594 10.1068 18.0579C7.93522 18.0452 5.89446 17.2068 4.3591 15.6971C2.81033 14.1747 1.9581 12.1507 1.9581 9.99811C1.9581 7.84503 2.81033 5.82101 4.3591 4.29863C7.55533 1.15638 12.7554 1.15638 15.9516 4.29863C16.6396 4.97457 17.1938 5.75412 17.5977 6.61469C17.7088 6.85068 17.9934 6.95431 18.2343 6.84456C18.4743 6.73575 18.5788 6.45595 18.4681 6.2195C18.0154 5.25765 17.3969 4.38719 16.629 3.6326C13.0596 0.122468 7.25114 0.122468 3.68173 3.6326C1.95188 5.33255 1 7.5935 1 9.99811C1 12.4027 1.95188 14.6632 3.68173 16.3632C5.39625 18.0495 7.67604 18.9859 10.101 19ZM9.97564 4.35549V9.51516C9.97276 9.51752 9.96893 9.51752 9.96558 9.51988L6.92935 11.8915C6.72192 12.0531 6.68743 12.3494 6.85175 12.5533C6.9466 12.6701 7.08648 12.7314 7.2278 12.7314C7.33176 12.7314 7.43715 12.6979 7.5253 12.6292L10.562 10.258C10.6755 10.169 10.8153 10.082 10.8205 9.9496C10.9374 9.86387 10.9337 9.69086 10.9337 9.53683V4.35549C10.9337 4.09548 10.7196 3.88446 10.4547 3.88446C10.1898 3.88446 9.97564 4.09548 9.97564 4.35549Z" fill="#B3BBD0" stroke="#B3BBD0" stroke-width="0.3"/>
</svg>
