<svg width="15" height="17" viewBox="0 0 15 17" fill="none" xmlns="http://www.w3.org/2000/svg">
<path d="M14.9789 11.6819C15.0667 11.3734 14.8723 11.0562 14.5445 10.9736C14.2168 10.8909 13.88 11.074 13.7922 11.3826L14.9789 11.6819ZM5.80743 16.1952L5.64844 16.7538L5.80743 16.1952ZM0.854844 8.11878L0.261479 7.96906L0.854844 8.11878ZM9.27395 4.01452C9.60166 4.09719 9.93853 3.91409 10.0264 3.60555C10.1142 3.29701 9.9197 2.97987 9.59199 2.8972L9.27395 4.01452ZM8.84778 0.28928C8.67821 0.0126515 8.30248 -0.0821285 8.00867 0.0775828C7.71485 0.237295 7.61419 0.591017 7.78382 0.867648L8.84778 0.28928ZM10.2614 3.75116L10.5685 4.25205C10.7096 4.17535 10.8126 4.04903 10.8547 3.90086C10.8969 3.75269 10.8749 3.59482 10.7934 3.46198L10.2614 3.75116ZM6.58442 5.08205C6.29061 5.24176 6.18994 5.59548 6.35957 5.87211C6.52921 6.14874 6.9049 6.24351 7.19872 6.0838L6.58442 5.08205ZM13.7922 11.3826C12.8789 14.5919 9.37511 16.4964 5.96642 15.6365L5.64844 16.7538C9.71259 17.7791 13.89 15.5083 14.9789 11.6819L13.7922 11.3826ZM5.96642 15.6365C2.55772 14.7766 0.534853 11.4777 1.44821 8.26841L0.261479 7.96906C-0.827497 11.7955 1.58432 15.7285 5.64844 16.7538L5.96642 15.6365ZM1.44821 8.26841C2.36157 5.05914 5.86529 3.15458 9.27395 4.01452L9.59199 2.8972C5.52786 1.87192 1.35046 4.14267 0.261479 7.96906L1.44821 8.26841ZM7.78382 0.867648L9.7294 4.04035L10.7934 3.46198L8.84778 0.28928L7.78382 0.867648ZM9.95421 3.25028L6.58442 5.08205L7.19872 6.0838L10.5685 4.25205L9.95421 3.25028Z" fill="#B3BBD0"/>
</svg>
