<svg width="22" height="22" viewBox="0 0 22 22" fill="none" xmlns="http://www.w3.org/2000/svg">
<path fill-rule="evenodd" clip-rule="evenodd" d="M17.2998 15.2658L16.4089 14.3748L19.4027 11.2748C19.4585 11.217 19.4585 11.1232 19.4027 11.0654L11.1105 2.47916C11.0546 2.42133 10.9641 2.42133 10.9082 2.47916L2.616 11.0654C2.56016 11.1232 2.56016 11.217 2.616 11.2748L10.9082 19.8611C10.9641 19.9189 11.0546 19.9189 11.1105 19.8611L14.3463 16.5105L15.2245 17.3888L11.4182 21.2827C11.1872 21.519 10.8128 21.519 10.5818 21.2827L1.17321 11.6577C0.942264 11.4215 0.942264 11.0384 1.17321 10.8022L10.5818 1.17719C10.8128 0.940936 11.1872 0.940936 11.4182 1.17719L20.8268 10.8022C21.0577 11.0384 21.0577 11.4215 20.8268 11.6577L17.2998 15.2658Z" fill="#B3BBD0" stroke="#B3BBD0" stroke-width="0.25"/>
<path fill-rule="evenodd" clip-rule="evenodd" d="M14.5559 13.597C14.5744 13.6119 14.5923 13.6279 14.6094 13.645L16.9783 16.014C17.2353 16.271 17.2353 16.6876 16.9783 16.9446C16.7214 17.2016 16.3047 17.2016 16.0477 16.9446L13.6788 14.5757C13.6569 14.5538 13.6368 14.5307 13.6187 14.5067C12.9591 14.9678 12.1565 15.2382 11.2907 15.2382C9.04399 15.2382 7.22266 13.4169 7.22266 11.1702C7.22266 8.92344 9.04399 7.10211 11.2907 7.10211C13.5374 7.10211 15.3588 8.92344 15.3588 11.1702C15.3588 12.0797 15.0603 12.9195 14.5559 13.597ZM11.2907 14.0417C12.8766 14.0417 14.1623 12.7561 14.1623 11.1702C14.1623 9.58424 12.8766 8.2986 11.2907 8.2986C9.70479 8.2986 8.41914 9.58424 8.41914 11.1702C8.41914 12.7561 9.70479 14.0417 11.2907 14.0417Z" fill="#B3BBD0" stroke="#B3BBD0" stroke-width="0.25"/>
</svg>
