<svg width="20" height="20" viewBox="0 0 20 20" fill="none" xmlns="http://www.w3.org/2000/svg">
<path d="M9.99822 1C8.79522 1 7.81641 1.9788 7.81641 3.18178C7.81641 4.19603 8.51322 5.04856 9.45277 5.29183V8.3635C9.45277 8.66458 9.69713 8.90894 9.99822 8.90894C10.2993 8.90894 10.5437 8.66458 10.5437 8.3635V5.29183C11.4832 5.04856 12.18 4.1963 12.18 3.18178C12.18 1.9788 11.2012 1 9.99822 1ZM9.99822 4.27267C9.39659 4.27267 8.90732 3.7834 8.90732 3.18178C8.90732 2.58015 9.39659 2.09089 9.99822 2.09089C10.5999 2.09089 11.0891 2.58015 11.0891 3.18178C11.0891 3.7834 10.5999 4.27267 9.99822 4.27267Z" fill="white" stroke="white" stroke-width="0.2"/>
<path d="M1 16.8175C1 18.0205 1.97882 18.9993 3.18182 18.9993C4.38482 18.9993 5.36364 18.0205 5.36364 16.8175C5.36364 15.6145 4.38482 14.6357 3.18182 14.6357C1.97882 14.6357 1 15.6145 1 16.8175ZM3.18182 15.7266C3.78345 15.7266 4.27273 16.2159 4.27273 16.8175C4.27273 17.4191 3.78345 17.9084 3.18182 17.9084C2.58018 17.9084 2.09091 17.4191 2.09091 16.8175C2.09091 16.2159 2.58018 15.7266 3.18182 15.7266Z" fill="white" stroke="white" stroke-width="0.2"/>
<path d="M14.0898 9.4541H11.6353C11.3342 9.4541 11.0898 9.69846 11.0898 9.99955C11.0898 10.3006 11.3342 10.545 11.6353 10.545H14.0898C15.2928 10.545 16.2717 11.5238 16.2717 12.7268V14.7075C15.3321 14.9508 14.6353 15.8031 14.6353 16.8176C14.6353 18.0206 15.6141 18.9994 16.8171 18.9994C18.0201 18.9994 18.9989 18.0206 18.9989 16.8176C18.9989 15.8033 18.3021 14.9508 17.3626 14.7075V12.7268C17.3626 10.9222 15.8945 9.4541 14.0898 9.4541ZM17.908 16.8176C17.908 17.4192 17.4188 17.9085 16.8171 17.9085C16.2155 17.9085 15.7262 17.4192 15.7262 16.8176C15.7262 16.216 16.2155 15.7267 16.8171 15.7267C17.4188 15.7267 17.908 16.216 17.908 16.8176Z" fill="white" stroke="white" stroke-width="0.2"/>
<path d="M2.63672 12.7268V13.5449C2.63672 13.846 2.88108 14.0904 3.18217 14.0904C3.48326 14.0904 3.72763 13.846 3.72763 13.5449V12.7268C3.72763 11.5238 4.70645 10.545 5.90945 10.545H8.36399C8.66508 10.545 8.90945 10.3006 8.90945 9.99955C8.90945 9.69846 8.66508 9.4541 8.36399 9.4541H5.90945C4.10481 9.4541 2.63672 10.9222 2.63672 12.7268Z" fill="white" stroke="white" stroke-width="0.2"/>
<path d="M9.45277 14.7079C8.51322 14.9512 7.81641 15.8035 7.81641 16.818C7.81641 18.021 8.79522 18.9998 9.99822 18.9998C11.2012 18.9998 12.18 18.021 12.18 16.818C12.18 15.8037 11.4832 14.9512 10.5437 14.7079V11.6363C10.5437 11.3352 10.2993 11.0908 9.99822 11.0908C9.69713 11.0908 9.45277 11.3352 9.45277 11.6363V14.7079ZM9.99822 15.7271C10.5999 15.7271 11.0891 16.2164 11.0891 16.818C11.0891 17.4196 10.5999 17.9089 9.99822 17.9089C9.39659 17.9089 8.90732 17.4196 8.90732 16.818C8.90732 16.2164 9.39659 15.7271 9.99822 15.7271Z" fill="white" stroke="white" stroke-width="0.2"/>
<path d="M9.99858 10.545C10.2998 10.545 10.544 10.3008 10.544 9.99955C10.544 9.69831 10.2998 9.4541 9.99858 9.4541C9.69733 9.4541 9.45312 9.69831 9.45312 9.99955C9.45312 10.3008 9.69733 10.545 9.99858 10.545Z" fill="white" stroke="white" stroke-width="0.2"/>
</svg>
