<svg width="20" height="20" viewBox="0 0 20 20" fill="none" xmlns="http://www.w3.org/2000/svg">
<path d="M16.2792 3.55953C15.224 2.52905 13.9318 1.7739 12.5163 1.36053C11.1008 0.947159 9.60547 0.888251 8.16188 1.18899C6.71829 1.48973 5.37072 2.1409 4.2378 3.08517C3.10488 4.02944 2.22134 5.23787 1.66495 6.60408C1.10857 7.97029 0.896398 9.45239 1.04712 10.9199C1.19784 12.3875 1.70683 13.7954 2.52928 15.0199C3.35174 16.2444 4.46244 17.2478 5.76362 17.9418C7.06481 18.6359 8.51657 18.9992 9.99112 19H10.1002C12.2673 18.9802 14.3532 18.1726 15.9691 16.7277C16.0275 16.6922 16.079 16.6464 16.1213 16.5927C16.2266 16.4951 16.3299 16.3993 16.4314 16.3055C17.2595 15.4594 17.9126 14.4582 18.3533 13.3592C18.7939 12.2602 19.0135 11.085 18.9994 9.90089C18.9852 8.71683 18.7377 7.54719 18.2709 6.45902C17.8041 5.37084 17.1273 4.38552 16.2792 3.55953ZM10.083 17.8481C8.31889 17.8746 6.59801 17.3013 5.20184 16.2222C5.31095 15.978 5.7761 15.6706 7.26629 15.007C8.29133 14.5503 8.72202 13.9212 8.90291 13.4299C9.29028 13.6005 9.70859 13.6895 10.1318 13.6914H10.1691C10.5635 13.6873 10.9535 13.6073 11.3177 13.4558C11.5158 13.9355 11.9666 14.5101 12.9658 14.941C14.3153 15.5155 14.835 15.8027 15.013 16.0297C13.6297 17.1887 11.8872 17.8315 10.083 17.8481ZM7.82906 9.80466C7.81183 8.28216 8.84262 7.04117 10.1002 7.01819H10.1232C10.4272 7.02284 10.7267 7.09299 11.0012 7.22386C11.2757 7.35473 11.5188 7.54325 11.7139 7.77657C12.185 8.32693 12.4428 9.02833 12.4403 9.75295C12.4575 11.2755 11.4382 12.5279 10.1663 12.5423C8.8943 12.5567 7.84628 11.33 7.82906 9.80466ZM15.8456 15.2253C15.415 14.7628 14.6254 14.3894 13.4108 13.8809C12.5494 13.5161 12.3484 13.0192 12.3082 12.8181C12.7244 12.4225 13.0531 11.9442 13.2732 11.4138C13.4933 10.8834 13.5998 10.3127 13.586 9.73859C13.5858 8.73904 13.2272 7.77272 12.5753 7.01532C12.2685 6.656 11.8878 6.36727 11.4591 6.16894C11.0304 5.97061 10.5639 5.86736 10.0916 5.86626C8.18796 5.88924 6.64609 7.66167 6.68342 9.81615C6.68322 10.3598 6.79013 10.8981 6.99804 11.4004C7.20595 11.9027 7.51078 12.359 7.8951 12.7434C7.8951 12.7434 7.8951 12.7606 7.8951 12.7692C7.8951 12.7778 7.89509 13.4673 6.80688 13.9556C5.53491 14.5302 4.7367 14.9295 4.33759 15.4379C3.28038 14.3334 2.56862 12.944 2.28972 11.4404C2.01081 9.93681 2.1769 8.38444 2.7676 6.97397C3.3583 5.56349 4.34787 4.35632 5.6148 3.50071C6.88172 2.64511 8.37083 2.17832 9.89924 2.15768H9.99112C11.5032 2.15956 12.9825 2.59846 14.2511 3.42157C15.5197 4.24469 16.5236 5.41697 17.1421 6.79741C17.7606 8.17785 17.9672 9.70765 17.7372 11.2028C17.5072 12.698 16.8504 14.0948 15.8456 15.2253Z" fill="#B3BBD0" stroke="#B3BBD0" stroke-width="0.25"/>
</svg>
