<svg width="13" height="16" viewBox="0 0 13 16" fill="none" xmlns="http://www.w3.org/2000/svg">
<mask id="path-1-inside-1" fill="white">
<path d="M7.90973 1.32882C9.72902 1.8305 11.0802 3.32819 11.1951 5.5918L11.4335 8.46512C11.4843 9.07338 11.8486 9.65081 12.214 10.2281C12.5595 10.7746 12.9051 11.3211 12.9834 11.8936C12.9945 11.9729 13 12.0543 13 12.1371C13 13.0082 12.3763 13.7143 11.6068 13.7143H1.39317C0.623726 13.7143 0 13.0082 0 12.1371C0 12.0543 0.0055197 11.9729 0.0165591 11.8936C0.0949389 11.3211 0.440472 10.7746 0.786005 10.2281C1.15141 9.65081 1.51571 9.07338 1.56649 8.46512L1.80494 5.5918C1.91975 3.32819 3.27097 1.8305 5.09027 1.32882C5.14105 0.586356 5.75263 0 6.5 0C7.24737 0 7.85895 0.586356 7.90973 1.32882Z"/>
<path d="M3.56793 13.7143C3.99469 15.0459 5.14619 16 6.49974 16C7.85328 16 9.00479 15.0459 9.43154 13.7143H8.2155C7.85839 14.4231 7.18508 14.8571 6.49974 14.8571C5.8144 14.8571 5.14109 14.4231 4.78398 13.7143H3.56793Z"/>
</mask>
<path d="M11.1951 5.5918L9.19763 5.69311L9.19925 5.72519L9.20191 5.7572L11.1951 5.5918ZM7.90973 1.32882L5.91439 1.46529L6.01115 2.87993L7.37807 3.25686L7.90973 1.32882ZM11.4335 8.46512L9.44036 8.63053L9.44044 8.63152L11.4335 8.46512ZM12.214 10.2281L13.9045 9.15932L13.9039 9.15844L12.214 10.2281ZM12.9834 11.8936L11.0019 12.1649L11.0025 12.169L12.9834 11.8936ZM0.0165591 11.8936L1.9975 12.169L1.99807 12.1649L0.0165591 11.8936ZM0.786005 10.2281L-0.903913 9.15843L-0.904471 9.15932L0.786005 10.2281ZM1.56649 8.46512L3.55956 8.63152L3.55964 8.63053L1.56649 8.46512ZM1.80494 5.5918L3.79809 5.7572L3.80075 5.72519L3.80237 5.69311L1.80494 5.5918ZM5.09027 1.32882L5.62193 3.25686L6.98885 2.87993L7.08561 1.46529L5.09027 1.32882ZM3.56793 13.7143V11.7143H0.826794L1.66335 14.3247L3.56793 13.7143ZM9.43154 13.7143L11.3361 14.3247L12.1727 11.7143H9.43154V13.7143ZM8.2155 13.7143V11.7143H6.98362L6.42937 12.8144L8.2155 13.7143ZM4.78398 13.7143L6.57011 12.8144L6.01586 11.7143H4.78398V13.7143ZM13.1925 5.49049C13.0337 2.36075 11.0873 0.130385 8.44139 -0.599217L7.37807 3.25686C8.3708 3.53061 9.12675 4.29564 9.19763 5.69311L13.1925 5.49049ZM13.4267 8.29972L13.1882 5.42639L9.20191 5.7572L9.44036 8.63053L13.4267 8.29972ZM13.9039 9.15844C13.7101 8.85224 13.589 8.65653 13.5024 8.47944C13.4199 8.31085 13.4238 8.26492 13.4266 8.29873L9.44044 8.63152C9.5399 9.82287 10.2297 10.8327 10.5241 11.2978L13.9039 9.15844ZM14.965 11.6223C14.8162 10.5357 14.1869 9.606 13.9045 9.15932L10.5235 11.2969C10.7067 11.5866 10.825 11.7768 10.913 11.9513C10.9975 12.1191 11.0037 12.1781 11.0019 12.1649L14.965 11.6223ZM15 12.1371C15 11.9655 14.9886 11.792 14.9644 11.6181L11.0025 12.169C11.0004 12.1539 11 12.1431 11 12.1371H15ZM11.6068 15.7143C13.7068 15.7143 15 13.8724 15 12.1371H11C11 12.097 11.0144 12.0173 11.093 11.9283C11.175 11.8354 11.3527 11.7143 11.6068 11.7143V15.7143ZM1.39317 15.7143H11.6068V11.7143H1.39317V15.7143ZM-2 12.1371C-2 13.8724 -0.706791 15.7143 1.39317 15.7143V11.7143C1.64726 11.7143 1.82499 11.8354 1.90699 11.9283C1.98564 12.0173 2 12.097 2 12.1371H-2ZM-1.96438 11.6181C-1.98856 11.792 -2 11.9655 -2 12.1371H2C2 12.1431 1.9996 12.1539 1.99749 12.169L-1.96438 11.6181ZM-0.904471 9.15932C-1.18688 9.606 -1.81619 10.5357 -1.96495 11.6223L1.99807 12.1649C1.99625 12.1781 2.00246 12.1191 2.08703 11.9513C2.17502 11.7768 2.29332 11.5866 2.47648 11.2969L-0.904471 9.15932ZM-0.426575 8.29873C-0.423753 8.26492 -0.419892 8.31085 -0.502358 8.47944C-0.58898 8.65653 -0.710099 8.85224 -0.903913 9.15844L2.47592 11.2978C2.77027 10.8327 3.4601 9.82287 3.55956 8.63152L-0.426575 8.29873ZM-0.188206 5.42639L-0.426657 8.29972L3.55964 8.63053L3.79809 5.7572L-0.188206 5.42639ZM4.55861 -0.599217C1.91275 0.130385 -0.0337499 2.36075 -0.19249 5.49049L3.80237 5.69311C3.87325 4.29564 4.6292 3.53061 5.62193 3.25686L4.55861 -0.599217ZM7.08561 1.46529C7.06643 1.74571 6.83036 2 6.5 2V-2C4.6749 -2 3.21567 -0.572996 3.09493 1.19235L7.08561 1.46529ZM6.5 2C6.16964 2 5.93357 1.74571 5.91439 1.46529L9.90507 1.19235C9.78433 -0.572996 8.3251 -2 6.5 -2V2ZM6.49974 14C6.1452 14 5.67574 13.738 5.47252 13.1039L1.66335 14.3247C2.31364 16.3538 4.14719 18 6.49974 18V14ZM7.52696 13.1039C7.32374 13.738 6.85428 14 6.49974 14V18C8.85229 18 10.6858 16.3538 11.3361 14.3247L7.52696 13.1039ZM9.43154 11.7143H8.2155V15.7143H9.43154V11.7143ZM6.49974 16.8571C8.03607 16.8571 9.34994 15.9077 10.0016 14.6141L6.42937 12.8144C6.40379 12.8652 6.37872 12.8825 6.37898 12.8823C6.37947 12.882 6.38858 12.8761 6.40832 12.8699C6.42839 12.8636 6.45937 12.8571 6.49974 12.8571V16.8571ZM2.99784 14.6141C3.64954 15.9077 4.96341 16.8571 6.49974 16.8571V12.8571C6.5401 12.8571 6.57108 12.8636 6.59116 12.8699C6.6109 12.8761 6.62001 12.882 6.6205 12.8823C6.62076 12.8825 6.59569 12.8652 6.57011 12.8144L2.99784 14.6141ZM4.78398 11.7143H3.56793V15.7143H4.78398V11.7143Z" fill="#FFB300" mask="url(#path-1-inside-1)"/>
</svg>
